<?xml version="1.0" encoding="UTF-8" standalone="no"?>
<!-- Created with Inkscape (http://www.inkscape.org/) -->

<svg
   width="62.481964mm"
   height="199.89172mm"
   viewBox="0 0 62.481964 199.89172"
   version="1.1"
   id="svg1"
   inkscape:export-batch-name="batch"
   inkscape:export-batch-path="/Users/solyaneberge/Inkscape"
   xmlns:inkscape="http://www.inkscape.org/namespaces/inkscape"
   xmlns:sodipodi="http://sodipodi.sourceforge.net/DTD/sodipodi-0.dtd"
   xmlns="http://www.w3.org/2000/svg"
   xmlns:svg="http://www.w3.org/2000/svg">
  <sodipodi:namedview
     id="namedview1"
     pagecolor="#ffffff"
     bordercolor="#000000"
     borderopacity="0.25"
     inkscape:showpageshadow="2"
     inkscape:pageopacity="0.0"
     inkscape:pagecheckerboard="0"
     inkscape:deskcolor="#d1d1d1"
     inkscape:document-units="mm" />
  <defs
     id="defs1" />
  <g
     inkscape:groupmode="layer"
     id="layer7"
     inkscape:label="StickFigure2"
     transform="translate(-936.19219,-33.366953)">
    <g
       id="g162"
       transform="translate(90.676497,-165.49258)"
       inkscape:export-filename="stick_figure1.svg"
       inkscape:export-xdpi="96"
       inkscape:export-ydpi="96">
      <path
         style="display:none;opacity:0.46;fill:#adadad;fill-opacity:1;stroke:none;stroke-width:1;paint-order:fill markers stroke"
         d="m 893.70764,386.28005 c -5.93669,-0.19119 -11.90122,0.25799 -17.83501,0 -0.80004,-0.0348 -1.59255,-0.18114 -2.39249,-0.21749 -2.37887,-0.10814 -4.79594,0 -7.17751,0 -1.91355,0 -3.81683,-0.22148 -5.65499,0.435 -0.91604,0.32716 -1.72451,0.90249 -2.61001,1.305 -1.25283,0.56947 -2.50349,1.14298 -3.6975,1.73998 -0.0649,0.0324 -0.16624,-0.0512 -0.21752,0 -0.0196,0.0196 0,2.93788 0,3.04501 0,5.08313 1.38354,7.89618 6.74251,8.70001 3.37418,0.50612 6.82784,0.49821 10.2225,0.65249 3.70583,0.16846 8.06138,0.53781 11.74501,0.21751 1.99446,-0.17343 2.33355,-0.51022 4.1325,-0.87 1.87579,-0.37516 4.12239,-0.42995 5.87251,-1.30501 1.51736,-0.75866 3.25567,-2.01861 4.1325,-3.47998 0.11795,-0.19661 0.0995,-0.45591 0.21749,-0.65252 0.10551,-0.17584 0.34329,-0.25159 0.435,-0.435 0.13369,-0.26736 0.0998,-0.59523 0.21751,-0.87 0.2889,-0.67408 0.74229,-1.19134 0.87,-1.9575 0.0358,-0.21455 -0.0427,-0.4392 0,-0.65248 0.13185,-0.65927 0.45697,-1.6741 0.21749,-2.39253 -0.0648,-0.19452 -0.29001,-0.28998 -0.435,-0.43497 -1.48254,-1.48254 -2.89166,-2.01607 -4.78499,-2.82752 z"
         id="path177" />
      <path
         style="opacity:0.46;fill:#adadad;fill-opacity:1;stroke:none;stroke-width:1;paint-order:fill markers stroke"
         d="m 888.29342,401.32539 c -0.66389,0 -1.99168,-0.66389 -1.99168,0 0,0.66389 2.63575,-0.16102 1.99168,0 -1.61822,0.40455 -3.3968,-0.0296 -4.97922,0.49792 -0.76055,0.2535 -0.58121,0.49792 -1.49376,0.49792 -1.47667,0 -8.55247,-0.45402 -9.46055,0 -1.36842,0.68421 -2.66885,1.83235 -3.98335,2.48962 -0.41458,0.20728 -1.67587,-0.31586 -1.99171,0 -0.46945,0.46945 -0.1302,1.34067 0,1.99168 -0.11427,0.99992 0.77907,1.62251 0.99584,2.48963 0.0805,0.32202 -0.10496,0.68093 0,0.99583 0.25699,0.77092 2.2147,1.10734 2.98755,1.49376 0.49397,0.24699 0.978,0.82394 1.49375,0.99584 1.66048,0.55351 4.95036,0.01 6.47301,-0.49792 1.84367,-0.61455 3.45194,0.84106 4.4813,0.49792 1.99168,-0.66389 0.16597,-0.16597 1.49376,-1.49376 0.63714,-0.63714 3.11264,-0.78816 3.98338,-0.49792 1.03883,0.34629 1.95135,1.28654 2.98754,1.49376 2.28325,0.45667 1.21791,0.11105 2.98752,0.99587 0.88302,0.44148 1.29775,-0.64889 1.9917,-0.99587 0.60553,-0.30276 3.94637,-0.26747 4.4813,0 1.5348,0.76743 3.99831,1.65478 5.97506,0.99587 1.99398,-0.66466 3.71203,-2.60292 5.47714,-3.48547 0.83968,-0.41984 3.34513,0.63826 3.98338,0 0.63328,-0.63328 -0.94461,-1.90629 -0.99584,-1.9917 -0.27003,-0.45006 -0.22788,-1.0437 -0.49792,-1.49376 -0.58904,-0.98173 -2.49666,-1.99519 -3.48546,-2.48962 -0.9154,-0.4577 -8.72019,-2.11288 -9.95844,-1.49376 -1.3875,0.69377 -5.55664,2.44986 -7.46884,1.49376 -0.41987,-0.20992 -0.66389,-0.66389 -0.99584,-0.99584 -1.36305,-1.36303 -1.5934,-1.08119 -4.4813,-1.49376 z"
         id="path178"
         transform="translate(-13.771007,-14.754647)" />
      <path
         style="opacity:0.98;fill:#000000;fill-opacity:1;stroke:none;stroke-width:1;paint-order:fill markers stroke"
         d="m 866.5285,200.12206 c -1.33413,1.33414 -5.33659,2.66829 -4.00243,4.00244 1.33414,1.33414 4.97316,-5.62034 4.00243,-4.00244 -1.95656,3.26096 -4.82346,5.89003 -7.00426,9.00549 -0.89516,1.27878 -0.48908,8.47151 -1.00063,10.0061 -0.14914,0.44749 -0.78964,0.57872 -1.0006,1.00061 -0.44749,0.89497 0,2.00122 0,3.00183 0,7.35622 0.78216,8.56858 4.00243,15.00916 0.14918,0.29832 -0.23585,0.76476 0,1.00061 0.23585,0.23584 0.76478,-0.23585 1.00063,0 0.23582,0.23584 0,0.66707 0,1.00061 0.33354,0.33353 0.60812,0.73896 1.0006,1.00061 0.66707,0.33353 1.33414,0.66707 2.00123,1.00061 0.33354,0 0.70229,-0.14916 1.0006,0 0.84379,0.42189 1.15742,1.57932 2.00123,2.00122 0.59664,0.29832 1.52953,-0.47169 2.0012,0 0.23585,0.23585 -0.29831,0.85145 0,1.00061 3.45575,1.72787 7.3306,-3.1106 10.00612,-4.00244 0.43178,-0.14393 3.81725,-0.81542 4.00243,-1.00061 0.23585,-0.23585 -0.14914,-0.70229 0,-1.00061 0.42191,-0.84379 1.70292,-1.10625 2.00123,-2.00122 0.21096,-0.63284 -0.16179,-1.35407 0,-2.00122 0.52973,-2.11894 2.47208,-3.88473 3.00183,-6.00366 0.1618,-0.64716 -0.16179,-1.35407 0,-2.00123 0.92022,-3.6809 2.27362,-13.19131 1.0006,-17.01037 -0.29831,-0.89497 -1.57932,-1.15743 -2.0012,-2.00122 -1.88502,-3.77003 -6.74812,-6.87619 -11.00672,-9.00549 -1.85666,-0.92833 -10.31451,0.90172 -11.00672,1.00061 z"
         id="path157" />
      <path
         style="opacity:0.98;fill:#000000;fill-opacity:1;stroke:none;stroke-width:1;paint-order:fill markers stroke"
         d="m 858.52361,247.15074 c 0,13.67501 0,27.35002 0,41.02501 0,6.43247 -1.67042,18.6726 1.00063,24.01467 0.45339,0.90678 0,4.11511 0,5.00303 0,2.49002 0.41238,3.6508 1.0006,6.00366 0.63659,2.54638 -1.15805,6.68941 0,9.00549 1.29149,2.583 1.71035,3.42069 3.00183,6.00369 0.73192,1.46383 -0.45998,4.0831 1.0006,7.00426 0.14918,0.29832 -0.23585,0.76475 0,1.0006 0.08,0.08 11.29298,0 12.00732,0 2.38684,0 9.35184,0.65429 11.00672,-1.0006 0.23585,-0.23585 -0.23585,-0.76478 0,-1.0006 0.4717,-0.4717 1.52953,0.47167 2.00123,0 0.73867,-0.73867 0,-7.39355 0,-8.00489 0,-8.33842 0,-16.67685 0,-25.01527 0,-10.33963 0,-20.67928 0,-31.0189 0,-2.70198 0.86186,-7.42053 0,-10.00612 -0.71011,-2.13035 -1.29111,-3.87332 -2.00123,-6.00366 -0.74673,-2.24017 0.80675,-0.58165 0,-3.00183 -0.42785,-1.28362 -1.57334,-2.71881 -2.00122,-4.00244 -0.31642,-0.94926 0.44749,-2.10685 0,-3.00183 -0.88813,-1.77629 -2.11368,-3.22676 -3.00183,-5.00305 -0.73052,-1.46107 0.28794,-3.7145 -1.00061,-5.00305 -0.4717,-0.47169 -1.40456,0.29832 -2.00122,0 -6.03695,-3.01848 -14.84128,1.23854 -21.01282,3.00183 z"
         id="path158" />
      <path
         style="opacity:0.98;fill:#000000;fill-opacity:1;stroke:none;stroke-width:1;paint-order:fill markers stroke"
         d="m 864.52727,336.20506 c 0,10.67316 0,21.34634 0,32.01953 0,3.73158 -0.72977,8.35837 0,12.00732 0.14627,0.73133 0.81974,1.27767 1.00063,2.00123 0.49805,1.99223 0,4.91487 0,7.00426 0,0.89416 -0.60214,5.00306 1.0006,5.00306 0.33354,0 -0.23585,-0.76478 0,-1.00063 0.23585,-0.23585 0.85146,0.29835 1.0006,0 0.29835,-0.59663 -0.21092,-1.36837 0,-2.0012 0.50007,-1.50016 2.34141,-3.35198 3.00183,-5.00306 2.36416,-5.91037 3.69727,-38.09656 0,-43.02625 -1.84501,-2.46004 -4.00243,-4.6695 -6.00366,-7.00426 z"
         id="path159" />
      <path
         style="opacity:0.98;fill:#000000;fill-opacity:1;stroke:none;stroke-width:1;paint-order:fill markers stroke"
         d="m 885.54009,338.20629 c 0.94324,3.45104 -0.58915,7.47172 0,11.00669 0.34681,2.08079 1.70291,3.91541 2.00122,6.00366 0.18868,1.32075 -0.16547,2.67862 0,4.00246 0.34116,2.72918 1.61227,5.28211 2.00123,8.00486 0.55846,3.90933 -1.25169,9.2529 0,13.00795 0.96507,2.89523 0.19995,5.6029 1.0006,8.00489 1.14978,3.44932 1.00063,0.7412 1.00063,3.00183 0,0.35094 0.3828,4.62023 0,5.00303 -2.0121,2.01211 -9.52923,-11.10038 -10.00612,-13.00792 -2.09904,-8.39623 -1.0006,-18.19561 -1.0006,-27.01647 0,-2.50484 -1.22838,-8.79568 0,-11.00672 1.3934,-2.50812 3.33537,-4.66953 5.00304,-7.00426 z"
         id="path160" />
      <path
         style="opacity:0.98;fill:#000000;fill-opacity:1;stroke:none;stroke-width:1;paint-order:fill markers stroke"
         d="m 858.52361,251.15318 c -0.33353,1.33415 -2.33476,3.6689 -1.0006,4.00244 1.33414,0.33354 1.33414,-5.33659 1.0006,-4.00244 -0.66706,2.66829 -1.40456,5.31996 -2.0012,8.00488 -0.14473,0.65119 0.29832,1.40457 0,2.00122 -1.64441,3.28881 -2.43181,6.8648 -4.00246,10.00612 -0.40023,0.80047 0.40027,2.20133 0,3.00183 -0.21095,0.42187 -0.85145,0.55311 -1.0006,1.0006 -0.31641,0.94927 0.44749,2.10685 0,3.00183 -2.05012,4.10027 -3.00183,9.99471 -3.00183,15.00915 0,4.21875 -1.00819,8.03516 -2.00123,12.00732 -0.24267,0.97073 0.31642,2.05258 0,3.00183 -0.72136,2.16411 -1.0006,2.77892 -1.0006,5.00306 0,0.66707 0,2.66829 0,2.00123 0,-3.79116 0.61235,-7.82077 3.00183,-11.00672 1.56091,-2.08121 3.13735,-3.40836 4.00243,-6.00366 1.26892,-3.80672 3.22501,-7.45064 5.00306,-11.00672 0.14917,-0.29832 0,-0.66707 0,-1.0006 0.33354,-0.66707 0.5869,-1.38068 1.0006,-2.00123 1.03476,-1.5521 2.51947,-3.07361 3.00183,-5.00306 0.62701,-2.50801 2.17991,-18.65423 1.00063,-21.01281 -1.20258,-2.40517 -2.66829,-4.66951 -4.00246,-7.00427 z"
         id="path161" />
      <path
         style="opacity:0.98;fill:#000000;fill-opacity:1;stroke:none;stroke-width:1;paint-order:fill markers stroke"
         d="m 881.53765,249.15196 c 0.66707,1.33415 0.66707,4.66951 2.00123,4.00244 1.33414,-0.66707 -2.93304,-5.1672 -2.00123,-4.00244 2.00123,3.00183 4.00244,6.00366 6.00366,9.00549 0.33354,1.00061 0.45797,2.09741 1.00063,3.00183 1.32234,2.20389 3.21517,3.64188 4.00243,6.00366 1.8678,5.60342 -0.20013,-1.26744 3.00183,3.00183 0.55383,0.73845 4.65244,8.95429 5.00306,10.00612 0.21093,0.63283 -0.16179,1.35405 0,2.0012 0.64828,2.59321 3.00871,4.51998 4.00243,7.00429 0.51076,1.27685 0.38561,2.77241 1.00061,4.00243 0.10636,0.21272 3.66998,9.00549 2.00122,9.00549 -0.94122,0 -5.28576,-3.28454 -6.00366,-4.00243 -0.52736,-0.52737 -0.47323,-1.47386 -1.0006,-2.00123 -1.54032,-1.5403 -4.46336,-2.46213 -6.00366,-4.00243 -0.52737,-0.52737 -0.47326,-1.47386 -1.00063,-2.00123 -0.52736,-0.52737 -1.40456,-0.55311 -2.0012,-1.0006 -7.19738,-5.39803 2.11167,1.11104 -3.00183,-4.00246 -2.4303,-2.43028 -1.46933,0.29755 -3.00185,-2.0012 -1.72609,-2.58916 -2.30188,-5.20512 -3.00183,-8.00489 -0.36177,-1.44709 -1.70868,-2.53979 -2.00121,-4.00243 -1.55315,-7.76578 -0.98009,-14.09059 1.0006,-22.01344 z"
         id="path162" />
    </g>
  </g>
</svg>
